<?xml version="1.0" encoding="utf-8" standalone="no"?>
<!DOCTYPE svg PUBLIC "-//W3C//DTD SVG 1.1//EN"
  "http://www.w3.org/Graphics/SVG/1.1/DTD/svg11.dtd">
<svg xmlns:xlink="http://www.w3.org/1999/xlink" width="576pt" height="432pt" viewBox="0 0 576 432" xmlns="http://www.w3.org/2000/svg" version="1.1">
 <metadata>
  <rdf:RDF xmlns:dc="http://purl.org/dc/elements/1.1/" xmlns:cc="http://creativecommons.org/ns#" xmlns:rdf="http://www.w3.org/1999/02/22-rdf-syntax-ns#">
   <cc:Work>
    <dc:type rdf:resource="http://purl.org/dc/dcmitype/StillImage"/>
    <dc:date>2024-09-03T18:41:51.520294</dc:date>
    <dc:format>image/svg+xml</dc:format>
    <dc:creator>
     <cc:Agent>
      <dc:title>Matplotlib v3.9.0, https://matplotlib.org/</dc:title>
     </cc:Agent>
    </dc:creator>
   </cc:Work>
  </rdf:RDF>
 </metadata>
 <defs>
  <style type="text/css">*{stroke-linejoin: round; stroke-linecap: butt}</style>
 </defs>
 <g id="figure_1">
  <g id="patch_1">
   <path d="M 0 432 
L 576 432 
L 576 0 
L 0 0 
z
" style="fill: #ffffff"/>
  </g>
  <g id="axes_1">
   <g id="patch_2">
    <path d="M 72 384.48 
L 518.4 384.48 
L 518.4 51.84 
L 72 51.84 
z
" style="fill: #ffffff"/>
   </g>
   <g id="matplotlib.axis_1">
    <g id="xtick_1">
     <g id="line2d_1">
      <path d="M 72 384.48 
L 72 51.84 
" clip-path="url(#p355f7d6d2c)" style="fill: none; stroke-dasharray: 2.96,1.28; stroke-dashoffset: 0; stroke: #b0b0b0; stroke-width: 0.8"/>
     </g>
     <g id="line2d_2">
      <defs>
       <path id="mf363215e16" d="M 0 0 
L 0 3.5 
" style="stroke: #000000; stroke-width: 0.8"/>
      </defs>
      <g>
       <use xlink:href="#mf363215e16" x="72" y="384.48" style="stroke: #000000; stroke-width: 0.8"/>
      </g>
     </g>
     <g id="text_1">
      <!-- $2^{0}$ -->
      <g transform="translate(66.4 399.078438) scale(0.1 -0.1)">
       <defs>
        <path id="DejaVuSans-32" d="M 1228 531 
L 3431 531 
L 3431 0 
L 469 0 
L 469 531 
Q 828 903 1448 1529 
Q 2069 2156 2228 2338 
Q 2531 2678 2651 2914 
Q 2772 3150 2772 3378 
Q 2772 3750 2511 3984 
Q 2250 4219 1831 4219 
Q 1534 4219 1204 4116 
Q 875 4013 500 3803 
L 500 4441 
Q 881 4594 1212 4672 
Q 1544 4750 1819 4750 
Q 2544 4750 2975 4387 
Q 3406 4025 3406 3419 
Q 3406 3131 3298 2873 
Q 3191 2616 2906 2266 
Q 2828 2175 2409 1742 
Q 1991 1309 1228 531 
z
" transform="scale(0.015625)"/>
        <path id="DejaVuSans-30" d="M 2034 4250 
Q 1547 4250 1301 3770 
Q 1056 3291 1056 2328 
Q 1056 1369 1301 889 
Q 1547 409 2034 409 
Q 2525 409 2770 889 
Q 3016 1369 3016 2328 
Q 3016 3291 2770 3770 
Q 2525 4250 2034 4250 
z
M 2034 4750 
Q 2819 4750 3233 4129 
Q 3647 3509 3647 2328 
Q 3647 1150 3233 529 
Q 2819 -91 2034 -91 
Q 1250 -91 836 529 
Q 422 1150 422 2328 
Q 422 3509 836 4129 
Q 1250 4750 2034 4750 
z
" transform="scale(0.015625)"/>
       </defs>
       <use xlink:href="#DejaVuSans-32" transform="translate(0 0.765625)"/>
       <use xlink:href="#DejaVuSans-30" transform="translate(64.580078 39.046875) scale(0.7)"/>
      </g>
     </g>
    </g>
    <g id="xtick_2">
     <g id="line2d_3">
      <path d="M 99.9 384.48 
L 99.9 51.84 
" clip-path="url(#p355f7d6d2c)" style="fill: none; stroke-dasharray: 2.96,1.28; stroke-dashoffset: 0; stroke: #b0b0b0; stroke-width: 0.8"/>
     </g>
     <g id="line2d_4">
      <g>
       <use xlink:href="#mf363215e16" x="99.9" y="384.48" style="stroke: #000000; stroke-width: 0.8"/>
      </g>
     </g>
     <g id="text_2">
      <!-- $2^{1}$ -->
      <g transform="translate(94.3 399.078438) scale(0.1 -0.1)">
       <defs>
        <path id="DejaVuSans-31" d="M 794 531 
L 1825 531 
L 1825 4091 
L 703 3866 
L 703 4441 
L 1819 4666 
L 2450 4666 
L 2450 531 
L 3481 531 
L 3481 0 
L 794 0 
L 794 531 
z
" transform="scale(0.015625)"/>
       </defs>
       <use xlink:href="#DejaVuSans-32" transform="translate(0 0.684375)"/>
       <use xlink:href="#DejaVuSans-31" transform="translate(64.580078 38.965625) scale(0.7)"/>
      </g>
     </g>
    </g>
    <g id="xtick_3">
     <g id="line2d_5">
      <path d="M 127.8 384.48 
L 127.8 51.84 
" clip-path="url(#p355f7d6d2c)" style="fill: none; stroke-dasharray: 2.96,1.28; stroke-dashoffset: 0; stroke: #b0b0b0; stroke-width: 0.8"/>
     </g>
     <g id="line2d_6">
      <g>
       <use xlink:href="#mf363215e16" x="127.8" y="384.48" style="stroke: #000000; stroke-width: 0.8"/>
      </g>
     </g>
     <g id="text_3">
      <!-- $2^{2}$ -->
      <g transform="translate(122.2 399.078438) scale(0.1 -0.1)">
       <use xlink:href="#DejaVuSans-32" transform="translate(0 0.765625)"/>
       <use xlink:href="#DejaVuSans-32" transform="translate(64.580078 39.046875) scale(0.7)"/>
      </g>
     </g>
    </g>
    <g id="xtick_4">
     <g id="line2d_7">
      <path d="M 155.7 384.48 
L 155.7 51.84 
" clip-path="url(#p355f7d6d2c)" style="fill: none; stroke-dasharray: 2.96,1.28; stroke-dashoffset: 0; stroke: #b0b0b0; stroke-width: 0.8"/>
     </g>
     <g id="line2d_8">
      <g>
       <use xlink:href="#mf363215e16" x="155.7" y="384.48" style="stroke: #000000; stroke-width: 0.8"/>
      </g>
     </g>
     <g id="text_4">
      <!-- $2^{3}$ -->
      <g transform="translate(150.1 399.078438) scale(0.1 -0.1)">
       <defs>
        <path id="DejaVuSans-33" d="M 2597 2516 
Q 3050 2419 3304 2112 
Q 3559 1806 3559 1356 
Q 3559 666 3084 287 
Q 2609 -91 1734 -91 
Q 1441 -91 1130 -33 
Q 819 25 488 141 
L 488 750 
Q 750 597 1062 519 
Q 1375 441 1716 441 
Q 2309 441 2620 675 
Q 2931 909 2931 1356 
Q 2931 1769 2642 2001 
Q 2353 2234 1838 2234 
L 1294 2234 
L 1294 2753 
L 1863 2753 
Q 2328 2753 2575 2939 
Q 2822 3125 2822 3475 
Q 2822 3834 2567 4026 
Q 2313 4219 1838 4219 
Q 1578 4219 1281 4162 
Q 984 4106 628 3988 
L 628 4550 
Q 988 4650 1302 4700 
Q 1616 4750 1894 4750 
Q 2613 4750 3031 4423 
Q 3450 4097 3450 3541 
Q 3450 3153 3228 2886 
Q 3006 2619 2597 2516 
z
" transform="scale(0.015625)"/>
       </defs>
       <use xlink:href="#DejaVuSans-32" transform="translate(0 0.765625)"/>
       <use xlink:href="#DejaVuSans-33" transform="translate(64.580078 39.046875) scale(0.7)"/>
      </g>
     </g>
    </g>
    <g id="xtick_5">
     <g id="line2d_9">
      <path d="M 183.6 384.48 
L 183.6 51.84 
" clip-path="url(#p355f7d6d2c)" style="fill: none; stroke-dasharray: 2.96,1.28; stroke-dashoffset: 0; stroke: #b0b0b0; stroke-width: 0.8"/>
     </g>
     <g id="line2d_10">
      <g>
       <use xlink:href="#mf363215e16" x="183.6" y="384.48" style="stroke: #000000; stroke-width: 0.8"/>
      </g>
     </g>
     <g id="text_5">
      <!-- $2^{4}$ -->
      <g transform="translate(178 399.078438) scale(0.1 -0.1)">
       <defs>
        <path id="DejaVuSans-34" d="M 2419 4116 
L 825 1625 
L 2419 1625 
L 2419 4116 
z
M 2253 4666 
L 3047 4666 
L 3047 1625 
L 3713 1625 
L 3713 1100 
L 3047 1100 
L 3047 0 
L 2419 0 
L 2419 1100 
L 313 1100 
L 313 1709 
L 2253 4666 
z
" transform="scale(0.015625)"/>
       </defs>
       <use xlink:href="#DejaVuSans-32" transform="translate(0 0.684375)"/>
       <use xlink:href="#DejaVuSans-34" transform="translate(64.580078 38.965625) scale(0.7)"/>
      </g>
     </g>
    </g>
    <g id="xtick_6">
     <g id="line2d_11">
      <path d="M 211.5 384.48 
L 211.5 51.84 
" clip-path="url(#p355f7d6d2c)" style="fill: none; stroke-dasharray: 2.96,1.28; stroke-dashoffset: 0; stroke: #b0b0b0; stroke-width: 0.8"/>
     </g>
     <g id="line2d_12">
      <g>
       <use xlink:href="#mf363215e16" x="211.5" y="384.48" style="stroke: #000000; stroke-width: 0.8"/>
      </g>
     </g>
     <g id="text_6">
      <!-- $2^{5}$ -->
      <g transform="translate(205.9 399.078438) scale(0.1 -0.1)">
       <defs>
        <path id="DejaVuSans-35" d="M 691 4666 
L 3169 4666 
L 3169 4134 
L 1269 4134 
L 1269 2991 
Q 1406 3038 1543 3061 
Q 1681 3084 1819 3084 
Q 2600 3084 3056 2656 
Q 3513 2228 3513 1497 
Q 3513 744 3044 326 
Q 2575 -91 1722 -91 
Q 1428 -91 1123 -41 
Q 819 9 494 109 
L 494 744 
Q 775 591 1075 516 
Q 1375 441 1709 441 
Q 2250 441 2565 725 
Q 2881 1009 2881 1497 
Q 2881 1984 2565 2268 
Q 2250 2553 1709 2553 
Q 1456 2553 1204 2497 
Q 953 2441 691 2322 
L 691 4666 
z
" transform="scale(0.015625)"/>
       </defs>
       <use xlink:href="#DejaVuSans-32" transform="translate(0 0.684375)"/>
       <use xlink:href="#DejaVuSans-35" transform="translate(64.580078 38.965625) scale(0.7)"/>
      </g>
     </g>
    </g>
    <g id="xtick_7">
     <g id="line2d_13">
      <path d="M 239.4 384.48 
L 239.4 51.84 
" clip-path="url(#p355f7d6d2c)" style="fill: none; stroke-dasharray: 2.96,1.28; stroke-dashoffset: 0; stroke: #b0b0b0; stroke-width: 0.8"/>
     </g>
     <g id="line2d_14">
      <g>
       <use xlink:href="#mf363215e16" x="239.4" y="384.48" style="stroke: #000000; stroke-width: 0.8"/>
      </g>
     </g>
     <g id="text_7">
      <!-- $2^{6}$ -->
      <g transform="translate(233.8 399.078438) scale(0.1 -0.1)">
       <defs>
        <path id="DejaVuSans-36" d="M 2113 2584 
Q 1688 2584 1439 2293 
Q 1191 2003 1191 1497 
Q 1191 994 1439 701 
Q 1688 409 2113 409 
Q 2538 409 2786 701 
Q 3034 994 3034 1497 
Q 3034 2003 2786 2293 
Q 2538 2584 2113 2584 
z
M 3366 4563 
L 3366 3988 
Q 3128 4100 2886 4159 
Q 2644 4219 2406 4219 
Q 1781 4219 1451 3797 
Q 1122 3375 1075 2522 
Q 1259 2794 1537 2939 
Q 1816 3084 2150 3084 
Q 2853 3084 3261 2657 
Q 3669 2231 3669 1497 
Q 3669 778 3244 343 
Q 2819 -91 2113 -91 
Q 1303 -91 875 529 
Q 447 1150 447 2328 
Q 447 3434 972 4092 
Q 1497 4750 2381 4750 
Q 2619 4750 2861 4703 
Q 3103 4656 3366 4563 
z
" transform="scale(0.015625)"/>
       </defs>
       <use xlink:href="#DejaVuSans-32" transform="translate(0 0.765625)"/>
       <use xlink:href="#DejaVuSans-36" transform="translate(64.580078 39.046875) scale(0.7)"/>
      </g>
     </g>
    </g>
    <g id="xtick_8">
     <g id="line2d_15">
      <path d="M 267.3 384.48 
L 267.3 51.84 
" clip-path="url(#p355f7d6d2c)" style="fill: none; stroke-dasharray: 2.96,1.28; stroke-dashoffset: 0; stroke: #b0b0b0; stroke-width: 0.8"/>
     </g>
     <g id="line2d_16">
      <g>
       <use xlink:href="#mf363215e16" x="267.3" y="384.48" style="stroke: #000000; stroke-width: 0.8"/>
      </g>
     </g>
     <g id="text_8">
      <!-- $2^{7}$ -->
      <g transform="translate(261.7 399.078438) scale(0.1 -0.1)">
       <defs>
        <path id="DejaVuSans-37" d="M 525 4666 
L 3525 4666 
L 3525 4397 
L 1831 0 
L 1172 0 
L 2766 4134 
L 525 4134 
L 525 4666 
z
" transform="scale(0.015625)"/>
       </defs>
       <use xlink:href="#DejaVuSans-32" transform="translate(0 0.684375)"/>
       <use xlink:href="#DejaVuSans-37" transform="translate(64.580078 38.965625) scale(0.7)"/>
      </g>
     </g>
    </g>
    <g id="xtick_9">
     <g id="line2d_17">
      <path d="M 295.2 384.48 
L 295.2 51.84 
" clip-path="url(#p355f7d6d2c)" style="fill: none; stroke-dasharray: 2.96,1.28; stroke-dashoffset: 0; stroke: #b0b0b0; stroke-width: 0.8"/>
     </g>
     <g id="line2d_18">
      <g>
       <use xlink:href="#mf363215e16" x="295.2" y="384.48" style="stroke: #000000; stroke-width: 0.8"/>
      </g>
     </g>
     <g id="text_9">
      <!-- $2^{8}$ -->
      <g transform="translate(289.6 399.078438) scale(0.1 -0.1)">
       <defs>
        <path id="DejaVuSans-38" d="M 2034 2216 
Q 1584 2216 1326 1975 
Q 1069 1734 1069 1313 
Q 1069 891 1326 650 
Q 1584 409 2034 409 
Q 2484 409 2743 651 
Q 3003 894 3003 1313 
Q 3003 1734 2745 1975 
Q 2488 2216 2034 2216 
z
M 1403 2484 
Q 997 2584 770 2862 
Q 544 3141 544 3541 
Q 544 4100 942 4425 
Q 1341 4750 2034 4750 
Q 2731 4750 3128 4425 
Q 3525 4100 3525 3541 
Q 3525 3141 3298 2862 
Q 3072 2584 2669 2484 
Q 3125 2378 3379 2068 
Q 3634 1759 3634 1313 
Q 3634 634 3220 271 
Q 2806 -91 2034 -91 
Q 1263 -91 848 271 
Q 434 634 434 1313 
Q 434 1759 690 2068 
Q 947 2378 1403 2484 
z
M 1172 3481 
Q 1172 3119 1398 2916 
Q 1625 2713 2034 2713 
Q 2441 2713 2670 2916 
Q 2900 3119 2900 3481 
Q 2900 3844 2670 4047 
Q 2441 4250 2034 4250 
Q 1625 4250 1398 4047 
Q 1172 3844 1172 3481 
z
" transform="scale(0.015625)"/>
       </defs>
       <use xlink:href="#DejaVuSans-32" transform="translate(0 0.765625)"/>
       <use xlink:href="#DejaVuSans-38" transform="translate(64.580078 39.046875) scale(0.7)"/>
      </g>
     </g>
    </g>
    <g id="xtick_10">
     <g id="line2d_19">
      <path d="M 323.1 384.48 
L 323.1 51.84 
" clip-path="url(#p355f7d6d2c)" style="fill: none; stroke-dasharray: 2.96,1.28; stroke-dashoffset: 0; stroke: #b0b0b0; stroke-width: 0.8"/>
     </g>
     <g id="line2d_20">
      <g>
       <use xlink:href="#mf363215e16" x="323.1" y="384.48" style="stroke: #000000; stroke-width: 0.8"/>
      </g>
     </g>
     <g id="text_10">
      <!-- $2^{9}$ -->
      <g transform="translate(317.5 399.078438) scale(0.1 -0.1)">
       <defs>
        <path id="DejaVuSans-39" d="M 703 97 
L 703 672 
Q 941 559 1184 500 
Q 1428 441 1663 441 
Q 2288 441 2617 861 
Q 2947 1281 2994 2138 
Q 2813 1869 2534 1725 
Q 2256 1581 1919 1581 
Q 1219 1581 811 2004 
Q 403 2428 403 3163 
Q 403 3881 828 4315 
Q 1253 4750 1959 4750 
Q 2769 4750 3195 4129 
Q 3622 3509 3622 2328 
Q 3622 1225 3098 567 
Q 2575 -91 1691 -91 
Q 1453 -91 1209 -44 
Q 966 3 703 97 
z
M 1959 2075 
Q 2384 2075 2632 2365 
Q 2881 2656 2881 3163 
Q 2881 3666 2632 3958 
Q 2384 4250 1959 4250 
Q 1534 4250 1286 3958 
Q 1038 3666 1038 3163 
Q 1038 2656 1286 2365 
Q 1534 2075 1959 2075 
z
" transform="scale(0.015625)"/>
       </defs>
       <use xlink:href="#DejaVuSans-32" transform="translate(0 0.765625)"/>
       <use xlink:href="#DejaVuSans-39" transform="translate(64.580078 39.046875) scale(0.7)"/>
      </g>
     </g>
    </g>
    <g id="xtick_11">
     <g id="line2d_21">
      <path d="M 351 384.48 
L 351 51.84 
" clip-path="url(#p355f7d6d2c)" style="fill: none; stroke-dasharray: 2.96,1.28; stroke-dashoffset: 0; stroke: #b0b0b0; stroke-width: 0.8"/>
     </g>
     <g id="line2d_22">
      <g>
       <use xlink:href="#mf363215e16" x="351" y="384.48" style="stroke: #000000; stroke-width: 0.8"/>
      </g>
     </g>
     <g id="text_11">
      <!-- $2^{10}$ -->
      <g transform="translate(343.15 399.078438) scale(0.1 -0.1)">
       <use xlink:href="#DejaVuSans-32" transform="translate(0 0.765625)"/>
       <use xlink:href="#DejaVuSans-31" transform="translate(64.580078 39.046875) scale(0.7)"/>
       <use xlink:href="#DejaVuSans-30" transform="translate(109.116211 39.046875) scale(0.7)"/>
      </g>
     </g>
    </g>
    <g id="xtick_12">
     <g id="line2d_23">
      <path d="M 378.9 384.48 
L 378.9 51.84 
" clip-path="url(#p355f7d6d2c)" style="fill: none; stroke-dasharray: 2.96,1.28; stroke-dashoffset: 0; stroke: #b0b0b0; stroke-width: 0.8"/>
     </g>
     <g id="line2d_24">
      <g>
       <use xlink:href="#mf363215e16" x="378.9" y="384.48" style="stroke: #000000; stroke-width: 0.8"/>
      </g>
     </g>
     <g id="text_12">
      <!-- $2^{11}$ -->
      <g transform="translate(371.05 399.078438) scale(0.1 -0.1)">
       <use xlink:href="#DejaVuSans-32" transform="translate(0 0.684375)"/>
       <use xlink:href="#DejaVuSans-31" transform="translate(64.580078 38.965625) scale(0.7)"/>
       <use xlink:href="#DejaVuSans-31" transform="translate(109.116211 38.965625) scale(0.7)"/>
      </g>
     </g>
    </g>
    <g id="xtick_13">
     <g id="line2d_25">
      <path d="M 406.8 384.48 
L 406.8 51.84 
" clip-path="url(#p355f7d6d2c)" style="fill: none; stroke-dasharray: 2.96,1.28; stroke-dashoffset: 0; stroke: #b0b0b0; stroke-width: 0.8"/>
     </g>
     <g id="line2d_26">
      <g>
       <use xlink:href="#mf363215e16" x="406.8" y="384.48" style="stroke: #000000; stroke-width: 0.8"/>
      </g>
     </g>
     <g id="text_13">
      <!-- $2^{12}$ -->
      <g transform="translate(398.95 399.078438) scale(0.1 -0.1)">
       <use xlink:href="#DejaVuSans-32" transform="translate(0 0.765625)"/>
       <use xlink:href="#DejaVuSans-31" transform="translate(64.580078 39.046875) scale(0.7)"/>
       <use xlink:href="#DejaVuSans-32" transform="translate(109.116211 39.046875) scale(0.7)"/>
      </g>
     </g>
    </g>
    <g id="xtick_14">
     <g id="line2d_27">
      <path d="M 434.7 384.48 
L 434.7 51.84 
" clip-path="url(#p355f7d6d2c)" style="fill: none; stroke-dasharray: 2.96,1.28; stroke-dashoffset: 0; stroke: #b0b0b0; stroke-width: 0.8"/>
     </g>
     <g id="line2d_28">
      <g>
       <use xlink:href="#mf363215e16" x="434.7" y="384.48" style="stroke: #000000; stroke-width: 0.8"/>
      </g>
     </g>
     <g id="text_14">
      <!-- $2^{13}$ -->
      <g transform="translate(426.85 399.078438) scale(0.1 -0.1)">
       <use xlink:href="#DejaVuSans-32" transform="translate(0 0.765625)"/>
       <use xlink:href="#DejaVuSans-31" transform="translate(64.580078 39.046875) scale(0.7)"/>
       <use xlink:href="#DejaVuSans-33" transform="translate(109.116211 39.046875) scale(0.7)"/>
      </g>
     </g>
    </g>
    <g id="xtick_15">
     <g id="line2d_29">
      <path d="M 462.6 384.48 
L 462.6 51.84 
" clip-path="url(#p355f7d6d2c)" style="fill: none; stroke-dasharray: 2.96,1.28; stroke-dashoffset: 0; stroke: #b0b0b0; stroke-width: 0.8"/>
     </g>
     <g id="line2d_30">
      <g>
       <use xlink:href="#mf363215e16" x="462.6" y="384.48" style="stroke: #000000; stroke-width: 0.8"/>
      </g>
     </g>
     <g id="text_15">
      <!-- $2^{14}$ -->
      <g transform="translate(454.75 399.078438) scale(0.1 -0.1)">
       <use xlink:href="#DejaVuSans-32" transform="translate(0 0.684375)"/>
       <use xlink:href="#DejaVuSans-31" transform="translate(64.580078 38.965625) scale(0.7)"/>
       <use xlink:href="#DejaVuSans-34" transform="translate(109.116211 38.965625) scale(0.7)"/>
      </g>
     </g>
    </g>
    <g id="xtick_16">
     <g id="line2d_31">
      <path d="M 490.5 384.48 
L 490.5 51.84 
" clip-path="url(#p355f7d6d2c)" style="fill: none; stroke-dasharray: 2.96,1.28; stroke-dashoffset: 0; stroke: #b0b0b0; stroke-width: 0.8"/>
     </g>
     <g id="line2d_32">
      <g>
       <use xlink:href="#mf363215e16" x="490.5" y="384.48" style="stroke: #000000; stroke-width: 0.8"/>
      </g>
     </g>
     <g id="text_16">
      <!-- $2^{15}$ -->
      <g transform="translate(482.65 399.078438) scale(0.1 -0.1)">
       <use xlink:href="#DejaVuSans-32" transform="translate(0 0.684375)"/>
       <use xlink:href="#DejaVuSans-31" transform="translate(64.580078 38.965625) scale(0.7)"/>
       <use xlink:href="#DejaVuSans-35" transform="translate(109.116211 38.965625) scale(0.7)"/>
      </g>
     </g>
    </g>
    <g id="xtick_17">
     <g id="line2d_33">
      <path d="M 518.4 384.48 
L 518.4 51.84 
" clip-path="url(#p355f7d6d2c)" style="fill: none; stroke-dasharray: 2.96,1.28; stroke-dashoffset: 0; stroke: #b0b0b0; stroke-width: 0.8"/>
     </g>
     <g id="line2d_34">
      <g>
       <use xlink:href="#mf363215e16" x="518.4" y="384.48" style="stroke: #000000; stroke-width: 0.8"/>
      </g>
     </g>
     <g id="text_17">
      <!-- $2^{16}$ -->
      <g transform="translate(510.55 399.078438) scale(0.1 -0.1)">
       <use xlink:href="#DejaVuSans-32" transform="translate(0 0.765625)"/>
       <use xlink:href="#DejaVuSans-31" transform="translate(64.580078 39.046875) scale(0.7)"/>
       <use xlink:href="#DejaVuSans-36" transform="translate(109.116211 39.046875) scale(0.7)"/>
      </g>
     </g>
    </g>
    <g id="text_18">
     <!-- Analysis Time (seconds) -->
     <g transform="translate(234.849219 412.756563) scale(0.1 -0.1)">
      <defs>
       <path id="DejaVuSans-41" d="M 2188 4044 
L 1331 1722 
L 3047 1722 
L 2188 4044 
z
M 1831 4666 
L 2547 4666 
L 4325 0 
L 3669 0 
L 3244 1197 
L 1141 1197 
L 716 0 
L 50 0 
L 1831 4666 
z
" transform="scale(0.015625)"/>
       <path id="DejaVuSans-6e" d="M 3513 2113 
L 3513 0 
L 2938 0 
L 2938 2094 
Q 2938 2591 2744 2837 
Q 2550 3084 2163 3084 
Q 1697 3084 1428 2787 
Q 1159 2491 1159 1978 
L 1159 0 
L 581 0 
L 581 3500 
L 1159 3500 
L 1159 2956 
Q 1366 3272 1645 3428 
Q 1925 3584 2291 3584 
Q 2894 3584 3203 3211 
Q 3513 2838 3513 2113 
z
" transform="scale(0.015625)"/>
       <path id="DejaVuSans-61" d="M 2194 1759 
Q 1497 1759 1228 1600 
Q 959 1441 959 1056 
Q 959 750 1161 570 
Q 1363 391 1709 391 
Q 2188 391 2477 730 
Q 2766 1069 2766 1631 
L 2766 1759 
L 2194 1759 
z
M 3341 1997 
L 3341 0 
L 2766 0 
L 2766 531 
Q 2569 213 2275 61 
Q 1981 -91 1556 -91 
Q 1019 -91 701 211 
Q 384 513 384 1019 
Q 384 1609 779 1909 
Q 1175 2209 1959 2209 
L 2766 2209 
L 2766 2266 
Q 2766 2663 2505 2880 
Q 2244 3097 1772 3097 
Q 1472 3097 1187 3025 
Q 903 2953 641 2809 
L 641 3341 
Q 956 3463 1253 3523 
Q 1550 3584 1831 3584 
Q 2591 3584 2966 3190 
Q 3341 2797 3341 1997 
z
" transform="scale(0.015625)"/>
       <path id="DejaVuSans-6c" d="M 603 4863 
L 1178 4863 
L 1178 0 
L 603 0 
L 603 4863 
z
" transform="scale(0.015625)"/>
       <path id="DejaVuSans-79" d="M 2059 -325 
Q 1816 -950 1584 -1140 
Q 1353 -1331 966 -1331 
L 506 -1331 
L 506 -850 
L 844 -850 
Q 1081 -850 1212 -737 
Q 1344 -625 1503 -206 
L 1606 56 
L 191 3500 
L 800 3500 
L 1894 763 
L 2988 3500 
L 3597 3500 
L 2059 -325 
z
" transform="scale(0.015625)"/>
       <path id="DejaVuSans-73" d="M 2834 3397 
L 2834 2853 
Q 2591 2978 2328 3040 
Q 2066 3103 1784 3103 
Q 1356 3103 1142 2972 
Q 928 2841 928 2578 
Q 928 2378 1081 2264 
Q 1234 2150 1697 2047 
L 1894 2003 
Q 2506 1872 2764 1633 
Q 3022 1394 3022 966 
Q 3022 478 2636 193 
Q 2250 -91 1575 -91 
Q 1294 -91 989 -36 
Q 684 19 347 128 
L 347 722 
Q 666 556 975 473 
Q 1284 391 1588 391 
Q 1994 391 2212 530 
Q 2431 669 2431 922 
Q 2431 1156 2273 1281 
Q 2116 1406 1581 1522 
L 1381 1569 
Q 847 1681 609 1914 
Q 372 2147 372 2553 
Q 372 3047 722 3315 
Q 1072 3584 1716 3584 
Q 2034 3584 2315 3537 
Q 2597 3491 2834 3397 
z
" transform="scale(0.015625)"/>
       <path id="DejaVuSans-69" d="M 603 3500 
L 1178 3500 
L 1178 0 
L 603 0 
L 603 3500 
z
M 603 4863 
L 1178 4863 
L 1178 4134 
L 603 4134 
L 603 4863 
z
" transform="scale(0.015625)"/>
       <path id="DejaVuSans-20" transform="scale(0.015625)"/>
       <path id="DejaVuSans-54" d="M -19 4666 
L 3928 4666 
L 3928 4134 
L 2272 4134 
L 2272 0 
L 1638 0 
L 1638 4134 
L -19 4134 
L -19 4666 
z
" transform="scale(0.015625)"/>
       <path id="DejaVuSans-6d" d="M 3328 2828 
Q 3544 3216 3844 3400 
Q 4144 3584 4550 3584 
Q 5097 3584 5394 3201 
Q 5691 2819 5691 2113 
L 5691 0 
L 5113 0 
L 5113 2094 
Q 5113 2597 4934 2840 
Q 4756 3084 4391 3084 
Q 3944 3084 3684 2787 
Q 3425 2491 3425 1978 
L 3425 0 
L 2847 0 
L 2847 2094 
Q 2847 2600 2669 2842 
Q 2491 3084 2119 3084 
Q 1678 3084 1418 2786 
Q 1159 2488 1159 1978 
L 1159 0 
L 581 0 
L 581 3500 
L 1159 3500 
L 1159 2956 
Q 1356 3278 1631 3431 
Q 1906 3584 2284 3584 
Q 2666 3584 2933 3390 
Q 3200 3197 3328 2828 
z
" transform="scale(0.015625)"/>
       <path id="DejaVuSans-65" d="M 3597 1894 
L 3597 1613 
L 953 1613 
Q 991 1019 1311 708 
Q 1631 397 2203 397 
Q 2534 397 2845 478 
Q 3156 559 3463 722 
L 3463 178 
Q 3153 47 2828 -22 
Q 2503 -91 2169 -91 
Q 1331 -91 842 396 
Q 353 884 353 1716 
Q 353 2575 817 3079 
Q 1281 3584 2069 3584 
Q 2775 3584 3186 3129 
Q 3597 2675 3597 1894 
z
M 3022 2063 
Q 3016 2534 2758 2815 
Q 2500 3097 2075 3097 
Q 1594 3097 1305 2825 
Q 1016 2553 972 2059 
L 3022 2063 
z
" transform="scale(0.015625)"/>
       <path id="DejaVuSans-28" d="M 1984 4856 
Q 1566 4138 1362 3434 
Q 1159 2731 1159 2009 
Q 1159 1288 1364 580 
Q 1569 -128 1984 -844 
L 1484 -844 
Q 1016 -109 783 600 
Q 550 1309 550 2009 
Q 550 2706 781 3412 
Q 1013 4119 1484 4856 
L 1984 4856 
z
" transform="scale(0.015625)"/>
       <path id="DejaVuSans-63" d="M 3122 3366 
L 3122 2828 
Q 2878 2963 2633 3030 
Q 2388 3097 2138 3097 
Q 1578 3097 1268 2742 
Q 959 2388 959 1747 
Q 959 1106 1268 751 
Q 1578 397 2138 397 
Q 2388 397 2633 464 
Q 2878 531 3122 666 
L 3122 134 
Q 2881 22 2623 -34 
Q 2366 -91 2075 -91 
Q 1284 -91 818 406 
Q 353 903 353 1747 
Q 353 2603 823 3093 
Q 1294 3584 2113 3584 
Q 2378 3584 2631 3529 
Q 2884 3475 3122 3366 
z
" transform="scale(0.015625)"/>
       <path id="DejaVuSans-6f" d="M 1959 3097 
Q 1497 3097 1228 2736 
Q 959 2375 959 1747 
Q 959 1119 1226 758 
Q 1494 397 1959 397 
Q 2419 397 2687 759 
Q 2956 1122 2956 1747 
Q 2956 2369 2687 2733 
Q 2419 3097 1959 3097 
z
M 1959 3584 
Q 2709 3584 3137 3096 
Q 3566 2609 3566 1747 
Q 3566 888 3137 398 
Q 2709 -91 1959 -91 
Q 1206 -91 779 398 
Q 353 888 353 1747 
Q 353 2609 779 3096 
Q 1206 3584 1959 3584 
z
" transform="scale(0.015625)"/>
       <path id="DejaVuSans-64" d="M 2906 2969 
L 2906 4863 
L 3481 4863 
L 3481 0 
L 2906 0 
L 2906 525 
Q 2725 213 2448 61 
Q 2172 -91 1784 -91 
Q 1150 -91 751 415 
Q 353 922 353 1747 
Q 353 2572 751 3078 
Q 1150 3584 1784 3584 
Q 2172 3584 2448 3432 
Q 2725 3281 2906 2969 
z
M 947 1747 
Q 947 1113 1208 752 
Q 1469 391 1925 391 
Q 2381 391 2643 752 
Q 2906 1113 2906 1747 
Q 2906 2381 2643 2742 
Q 2381 3103 1925 3103 
Q 1469 3103 1208 2742 
Q 947 2381 947 1747 
z
" transform="scale(0.015625)"/>
       <path id="DejaVuSans-29" d="M 513 4856 
L 1013 4856 
Q 1481 4119 1714 3412 
Q 1947 2706 1947 2009 
Q 1947 1309 1714 600 
Q 1481 -109 1013 -844 
L 513 -844 
Q 928 -128 1133 580 
Q 1338 1288 1338 2009 
Q 1338 2731 1133 3434 
Q 928 4138 513 4856 
z
" transform="scale(0.015625)"/>
      </defs>
      <use xlink:href="#DejaVuSans-41"/>
      <use xlink:href="#DejaVuSans-6e" x="68.408203"/>
      <use xlink:href="#DejaVuSans-61" x="131.787109"/>
      <use xlink:href="#DejaVuSans-6c" x="193.066406"/>
      <use xlink:href="#DejaVuSans-79" x="220.849609"/>
      <use xlink:href="#DejaVuSans-73" x="280.029297"/>
      <use xlink:href="#DejaVuSans-69" x="332.128906"/>
      <use xlink:href="#DejaVuSans-73" x="359.912109"/>
      <use xlink:href="#DejaVuSans-20" x="412.011719"/>
      <use xlink:href="#DejaVuSans-54" x="443.798828"/>
      <use xlink:href="#DejaVuSans-69" x="501.757812"/>
      <use xlink:href="#DejaVuSans-6d" x="529.541016"/>
      <use xlink:href="#DejaVuSans-65" x="626.953125"/>
      <use xlink:href="#DejaVuSans-20" x="688.476562"/>
      <use xlink:href="#DejaVuSans-28" x="720.263672"/>
      <use xlink:href="#DejaVuSans-73" x="759.277344"/>
      <use xlink:href="#DejaVuSans-65" x="811.376953"/>
      <use xlink:href="#DejaVuSans-63" x="872.900391"/>
      <use xlink:href="#DejaVuSans-6f" x="927.880859"/>
      <use xlink:href="#DejaVuSans-6e" x="989.0625"/>
      <use xlink:href="#DejaVuSans-64" x="1052.441406"/>
      <use xlink:href="#DejaVuSans-73" x="1115.917969"/>
      <use xlink:href="#DejaVuSans-29" x="1168.017578"/>
     </g>
    </g>
   </g>
   <g id="matplotlib.axis_2">
    <g id="ytick_1">
     <g id="line2d_35">
      <path d="M 72 384.48 
L 518.4 384.48 
" clip-path="url(#p355f7d6d2c)" style="fill: none; stroke-dasharray: 2.96,1.28; stroke-dashoffset: 0; stroke: #b0b0b0; stroke-width: 0.8"/>
     </g>
     <g id="line2d_36">
      <defs>
       <path id="m3486c3db27" d="M 0 0 
L -3.5 0 
" style="stroke: #000000; stroke-width: 0.8"/>
      </defs>
      <g>
       <use xlink:href="#m3486c3db27" x="72" y="384.48" style="stroke: #000000; stroke-width: 0.8"/>
      </g>
     </g>
     <g id="text_19">
      <!-- 0 -->
      <g transform="translate(58.6375 388.279219) scale(0.1 -0.1)">
       <use xlink:href="#DejaVuSans-30"/>
      </g>
     </g>
    </g>
    <g id="ytick_2">
     <g id="line2d_37">
      <path d="M 72 317.952 
L 518.4 317.952 
" clip-path="url(#p355f7d6d2c)" style="fill: none; stroke-dasharray: 2.96,1.28; stroke-dashoffset: 0; stroke: #b0b0b0; stroke-width: 0.8"/>
     </g>
     <g id="line2d_38">
      <g>
       <use xlink:href="#m3486c3db27" x="72" y="317.952" style="stroke: #000000; stroke-width: 0.8"/>
      </g>
     </g>
     <g id="text_20">
      <!-- 20 -->
      <g transform="translate(52.275 321.751219) scale(0.1 -0.1)">
       <use xlink:href="#DejaVuSans-32"/>
       <use xlink:href="#DejaVuSans-30" x="63.623047"/>
      </g>
     </g>
    </g>
    <g id="ytick_3">
     <g id="line2d_39">
      <path d="M 72 251.424 
L 518.4 251.424 
" clip-path="url(#p355f7d6d2c)" style="fill: none; stroke-dasharray: 2.96,1.28; stroke-dashoffset: 0; stroke: #b0b0b0; stroke-width: 0.8"/>
     </g>
     <g id="line2d_40">
      <g>
       <use xlink:href="#m3486c3db27" x="72" y="251.424" style="stroke: #000000; stroke-width: 0.8"/>
      </g>
     </g>
     <g id="text_21">
      <!-- 40 -->
      <g transform="translate(52.275 255.223219) scale(0.1 -0.1)">
       <use xlink:href="#DejaVuSans-34"/>
       <use xlink:href="#DejaVuSans-30" x="63.623047"/>
      </g>
     </g>
    </g>
    <g id="ytick_4">
     <g id="line2d_41">
      <path d="M 72 184.896 
L 518.4 184.896 
" clip-path="url(#p355f7d6d2c)" style="fill: none; stroke-dasharray: 2.96,1.28; stroke-dashoffset: 0; stroke: #b0b0b0; stroke-width: 0.8"/>
     </g>
     <g id="line2d_42">
      <g>
       <use xlink:href="#m3486c3db27" x="72" y="184.896" style="stroke: #000000; stroke-width: 0.8"/>
      </g>
     </g>
     <g id="text_22">
      <!-- 60 -->
      <g transform="translate(52.275 188.695219) scale(0.1 -0.1)">
       <use xlink:href="#DejaVuSans-36"/>
       <use xlink:href="#DejaVuSans-30" x="63.623047"/>
      </g>
     </g>
    </g>
    <g id="ytick_5">
     <g id="line2d_43">
      <path d="M 72 118.368 
L 518.4 118.368 
" clip-path="url(#p355f7d6d2c)" style="fill: none; stroke-dasharray: 2.96,1.28; stroke-dashoffset: 0; stroke: #b0b0b0; stroke-width: 0.8"/>
     </g>
     <g id="line2d_44">
      <g>
       <use xlink:href="#m3486c3db27" x="72" y="118.368" style="stroke: #000000; stroke-width: 0.8"/>
      </g>
     </g>
     <g id="text_23">
      <!-- 80 -->
      <g transform="translate(52.275 122.167219) scale(0.1 -0.1)">
       <use xlink:href="#DejaVuSans-38"/>
       <use xlink:href="#DejaVuSans-30" x="63.623047"/>
      </g>
     </g>
    </g>
    <g id="ytick_6">
     <g id="line2d_45">
      <path d="M 72 51.84 
L 518.4 51.84 
" clip-path="url(#p355f7d6d2c)" style="fill: none; stroke-dasharray: 2.96,1.28; stroke-dashoffset: 0; stroke: #b0b0b0; stroke-width: 0.8"/>
     </g>
     <g id="line2d_46">
      <g>
       <use xlink:href="#m3486c3db27" x="72" y="51.84" style="stroke: #000000; stroke-width: 0.8"/>
      </g>
     </g>
     <g id="text_24">
      <!-- 100 -->
      <g transform="translate(45.9125 55.639219) scale(0.1 -0.1)">
       <use xlink:href="#DejaVuSans-31"/>
       <use xlink:href="#DejaVuSans-30" x="63.623047"/>
       <use xlink:href="#DejaVuSans-30" x="127.246094"/>
      </g>
     </g>
    </g>
    <g id="text_25">
     <!-- Percentage of Websites (%) -->
     <g transform="translate(39.832812 287.057656) rotate(-90) scale(0.1 -0.1)">
      <defs>
       <path id="DejaVuSans-50" d="M 1259 4147 
L 1259 2394 
L 2053 2394 
Q 2494 2394 2734 2622 
Q 2975 2850 2975 3272 
Q 2975 3691 2734 3919 
Q 2494 4147 2053 4147 
L 1259 4147 
z
M 628 4666 
L 2053 4666 
Q 2838 4666 3239 4311 
Q 3641 3956 3641 3272 
Q 3641 2581 3239 2228 
Q 2838 1875 2053 1875 
L 1259 1875 
L 1259 0 
L 628 0 
L 628 4666 
z
" transform="scale(0.015625)"/>
       <path id="DejaVuSans-72" d="M 2631 2963 
Q 2534 3019 2420 3045 
Q 2306 3072 2169 3072 
Q 1681 3072 1420 2755 
Q 1159 2438 1159 1844 
L 1159 0 
L 581 0 
L 581 3500 
L 1159 3500 
L 1159 2956 
Q 1341 3275 1631 3429 
Q 1922 3584 2338 3584 
Q 2397 3584 2469 3576 
Q 2541 3569 2628 3553 
L 2631 2963 
z
" transform="scale(0.015625)"/>
       <path id="DejaVuSans-74" d="M 1172 4494 
L 1172 3500 
L 2356 3500 
L 2356 3053 
L 1172 3053 
L 1172 1153 
Q 1172 725 1289 603 
Q 1406 481 1766 481 
L 2356 481 
L 2356 0 
L 1766 0 
Q 1100 0 847 248 
Q 594 497 594 1153 
L 594 3053 
L 172 3053 
L 172 3500 
L 594 3500 
L 594 4494 
L 1172 4494 
z
" transform="scale(0.015625)"/>
       <path id="DejaVuSans-67" d="M 2906 1791 
Q 2906 2416 2648 2759 
Q 2391 3103 1925 3103 
Q 1463 3103 1205 2759 
Q 947 2416 947 1791 
Q 947 1169 1205 825 
Q 1463 481 1925 481 
Q 2391 481 2648 825 
Q 2906 1169 2906 1791 
z
M 3481 434 
Q 3481 -459 3084 -895 
Q 2688 -1331 1869 -1331 
Q 1566 -1331 1297 -1286 
Q 1028 -1241 775 -1147 
L 775 -588 
Q 1028 -725 1275 -790 
Q 1522 -856 1778 -856 
Q 2344 -856 2625 -561 
Q 2906 -266 2906 331 
L 2906 616 
Q 2728 306 2450 153 
Q 2172 0 1784 0 
Q 1141 0 747 490 
Q 353 981 353 1791 
Q 353 2603 747 3093 
Q 1141 3584 1784 3584 
Q 2172 3584 2450 3431 
Q 2728 3278 2906 2969 
L 2906 3500 
L 3481 3500 
L 3481 434 
z
" transform="scale(0.015625)"/>
       <path id="DejaVuSans-66" d="M 2375 4863 
L 2375 4384 
L 1825 4384 
Q 1516 4384 1395 4259 
Q 1275 4134 1275 3809 
L 1275 3500 
L 2222 3500 
L 2222 3053 
L 1275 3053 
L 1275 0 
L 697 0 
L 697 3053 
L 147 3053 
L 147 3500 
L 697 3500 
L 697 3744 
Q 697 4328 969 4595 
Q 1241 4863 1831 4863 
L 2375 4863 
z
" transform="scale(0.015625)"/>
       <path id="DejaVuSans-57" d="M 213 4666 
L 850 4666 
L 1831 722 
L 2809 4666 
L 3519 4666 
L 4500 722 
L 5478 4666 
L 6119 4666 
L 4947 0 
L 4153 0 
L 3169 4050 
L 2175 0 
L 1381 0 
L 213 4666 
z
" transform="scale(0.015625)"/>
       <path id="DejaVuSans-62" d="M 3116 1747 
Q 3116 2381 2855 2742 
Q 2594 3103 2138 3103 
Q 1681 3103 1420 2742 
Q 1159 2381 1159 1747 
Q 1159 1113 1420 752 
Q 1681 391 2138 391 
Q 2594 391 2855 752 
Q 3116 1113 3116 1747 
z
M 1159 2969 
Q 1341 3281 1617 3432 
Q 1894 3584 2278 3584 
Q 2916 3584 3314 3078 
Q 3713 2572 3713 1747 
Q 3713 922 3314 415 
Q 2916 -91 2278 -91 
Q 1894 -91 1617 61 
Q 1341 213 1159 525 
L 1159 0 
L 581 0 
L 581 4863 
L 1159 4863 
L 1159 2969 
z
" transform="scale(0.015625)"/>
       <path id="DejaVuSans-25" d="M 4653 2053 
Q 4381 2053 4226 1822 
Q 4072 1591 4072 1178 
Q 4072 772 4226 539 
Q 4381 306 4653 306 
Q 4919 306 5073 539 
Q 5228 772 5228 1178 
Q 5228 1588 5073 1820 
Q 4919 2053 4653 2053 
z
M 4653 2450 
Q 5147 2450 5437 2106 
Q 5728 1763 5728 1178 
Q 5728 594 5436 251 
Q 5144 -91 4653 -91 
Q 4153 -91 3862 251 
Q 3572 594 3572 1178 
Q 3572 1766 3864 2108 
Q 4156 2450 4653 2450 
z
M 1428 4353 
Q 1159 4353 1004 4120 
Q 850 3888 850 3481 
Q 850 3069 1003 2837 
Q 1156 2606 1428 2606 
Q 1700 2606 1854 2837 
Q 2009 3069 2009 3481 
Q 2009 3884 1853 4118 
Q 1697 4353 1428 4353 
z
M 4250 4750 
L 4750 4750 
L 1831 -91 
L 1331 -91 
L 4250 4750 
z
M 1428 4750 
Q 1922 4750 2215 4408 
Q 2509 4066 2509 3481 
Q 2509 2891 2217 2550 
Q 1925 2209 1428 2209 
Q 931 2209 642 2551 
Q 353 2894 353 3481 
Q 353 4063 643 4406 
Q 934 4750 1428 4750 
z
" transform="scale(0.015625)"/>
      </defs>
      <use xlink:href="#DejaVuSans-50"/>
      <use xlink:href="#DejaVuSans-65" x="56.677734"/>
      <use xlink:href="#DejaVuSans-72" x="118.201172"/>
      <use xlink:href="#DejaVuSans-63" x="157.064453"/>
      <use xlink:href="#DejaVuSans-65" x="212.044922"/>
      <use xlink:href="#DejaVuSans-6e" x="273.568359"/>
      <use xlink:href="#DejaVuSans-74" x="336.947266"/>
      <use xlink:href="#DejaVuSans-61" x="376.15625"/>
      <use xlink:href="#DejaVuSans-67" x="437.435547"/>
      <use xlink:href="#DejaVuSans-65" x="500.912109"/>
      <use xlink:href="#DejaVuSans-20" x="562.435547"/>
      <use xlink:href="#DejaVuSans-6f" x="594.222656"/>
      <use xlink:href="#DejaVuSans-66" x="655.404297"/>
      <use xlink:href="#DejaVuSans-20" x="690.609375"/>
      <use xlink:href="#DejaVuSans-57" x="722.396484"/>
      <use xlink:href="#DejaVuSans-65" x="815.398438"/>
      <use xlink:href="#DejaVuSans-62" x="876.921875"/>
      <use xlink:href="#DejaVuSans-73" x="940.398438"/>
      <use xlink:href="#DejaVuSans-69" x="992.498047"/>
      <use xlink:href="#DejaVuSans-74" x="1020.28125"/>
      <use xlink:href="#DejaVuSans-65" x="1059.490234"/>
      <use xlink:href="#DejaVuSans-73" x="1121.013672"/>
      <use xlink:href="#DejaVuSans-20" x="1173.113281"/>
      <use xlink:href="#DejaVuSans-28" x="1204.900391"/>
      <use xlink:href="#DejaVuSans-25" x="1243.914062"/>
      <use xlink:href="#DejaVuSans-29" x="1338.933594"/>
     </g>
    </g>
   </g>
   <g id="line2d_47">
    <path d="M 170.096823 383.674576 
L 176.492122 382.869153 
L 179.498633 382.063729 
L 181.40276 381.258305 
L 181.667572 380.452881 
L 182.192025 379.647458 
L 182.451711 378.842034 
L 183.950666 378.03661 
L 184.12486 375.620339 
L 184.421736 374.009492 
L 184.936056 373.204068 
L 185.251183 370.787797 
L 185.443888 369.982373 
L 186.040213 369.176949 
L 186.158425 367.566102 
L 187.045669 366.760678 
L 187.321836 365.955254 
L 188.161615 365.149831 
L 188.363263 363.538983 
L 189.356625 362.733559 
L 189.421986 361.122712 
L 189.876562 360.317288 
L 190.069819 359.511864 
L 190.11264 358.706441 
L 190.833702 357.901017 
L 191.064249 357.095593 
L 191.871162 356.290169 
L 192.299045 355.484746 
L 193.299872 354.679322 
L 193.359137 353.068475 
L 194.31499 352.263051 
L 194.334262 351.457627 
L 195.003061 350.652203 
L 197.071467 349.041356 
L 197.143408 348.235932 
L 197.83818 347.430508 
L 198.137316 346.625085 
L 200.204561 345.819661 
L 203.726297 344.208814 
L 204.241762 343.40339 
L 205.66254 342.597966 
L 208.116437 341.792542 
L 209.567572 340.987119 
L 210.183105 340.181695 
L 212.062089 339.376271 
L 212.111675 338.570847 
L 213.07868 337.765424 
L 213.090773 336.96 
L 213.786017 336.154576 
L 213.95205 335.349153 
L 214.305546 334.543729 
L 214.305546 333.738305 
L 214.504492 332.932881 
L 214.62106 331.322034 
L 214.818456 330.51661 
L 215.439132 329.711186 
L 215.439132 328.905763 
L 215.870237 326.489492 
L 216.917228 324.07322 
L 217.5066 323.267797 
L 217.851828 318.435254 
L 224.40039 316.824407 
L 224.872337 316.018983 
L 226.775572 315.213559 
L 227.26316 314.408136 
L 227.365061 313.602712 
L 229.083437 312.797288 
L 229.527938 311.991864 
L 230.189573 311.186441 
L 231.296901 310.381017 
L 231.496393 309.575593 
L 232.917569 308.770169 
L 233.256002 307.964746 
L 236.533008 307.159322 
L 242.005613 306.353898 
L 242.920651 305.548475 
L 243.058714 304.743051 
L 245.020115 303.937627 
L 246.126061 303.132203 
L 246.92168 302.32678 
L 249.742179 301.521356 
L 250.608347 300.715932 
L 253.505498 299.105085 
L 255.979574 298.299661 
L 258.822109 297.494237 
L 259.807589 296.688814 
L 261.269401 295.88339 
L 261.553323 295.077966 
L 262.175989 294.272542 
L 262.197413 293.467119 
L 264.168754 292.661695 
L 264.263814 291.856271 
L 264.836195 291.050847 
L 264.976362 290.245424 
L 266.122579 289.44 
L 266.586167 288.634576 
L 266.866864 287.829153 
L 266.889109 287.023729 
L 267.07611 286.218305 
L 268.127897 285.412881 
L 269.413328 284.607458 
L 269.991 283.802034 
L 270.146586 282.99661 
L 271.176351 282.191186 
L 271.500615 281.385763 
L 272.066057 280.580339 
L 273.097488 279.774915 
L 273.452604 278.164068 
L 273.455303 277.358644 
L 274.296542 276.55322 
L 274.420567 275.747797 
L 275.047993 274.942373 
L 275.327175 274.136949 
L 275.453206 272.526102 
L 275.902659 271.720678 
L 277.588637 270.109831 
L 277.877403 268.498983 
L 278.370051 267.693559 
L 278.458329 266.888136 
L 279.89339 265.277288 
L 280.348469 264.471864 
L 280.591049 263.666441 
L 281.898627 262.861017 
L 282.68086 262.055593 
L 283.27305 261.250169 
L 284.405199 260.444746 
L 284.425754 258.833898 
L 284.982865 258.028475 
L 285.027427 257.223051 
L 285.342001 256.417627 
L 285.368105 255.612203 
L 285.837087 254.80678 
L 285.860889 254.001356 
L 286.204446 253.195932 
L 286.259458 252.390508 
L 286.967857 250.779661 
L 287.48157 249.974237 
L 289.001016 249.168814 
L 289.816217 247.557966 
L 289.963329 245.141695 
L 290.362476 244.336271 
L 291.192535 241.114576 
L 291.201219 240.309153 
L 291.862586 239.503729 
L 292.22142 237.892881 
L 292.70275 237.087458 
L 292.859701 236.282034 
L 293.364783 235.47661 
L 294.168025 234.671186 
L 294.498969 232.254915 
L 294.680949 231.449492 
L 295.182701 230.644068 
L 295.214148 229.838644 
L 296.110988 229.03322 
L 296.169356 228.227797 
L 296.900953 227.422373 
L 297.091921 226.616949 
L 298.12123 225.006102 
L 298.132926 224.200678 
L 298.35015 222.589831 
L 299.082062 220.978983 
L 299.416193 219.368136 
L 299.506712 217.757288 
L 300.32758 216.951864 
L 300.970251 216.146441 
L 301.770108 215.341017 
L 302.025714 214.535593 
L 302.307391 210.508475 
L 303.138202 209.703051 
L 303.355774 208.092203 
L 304.02678 207.28678 
L 304.201914 205.675932 
L 304.607207 204.870508 
L 304.787274 204.065085 
L 304.981339 201.648814 
L 305.181836 200.84339 
L 305.607792 200.037966 
L 305.937875 198.427119 
L 306.983821 197.621695 
L 307.235285 194.4 
L 307.344737 193.594576 
L 307.685154 192.789153 
L 308.147151 190.372881 
L 308.177915 189.567458 
L 308.394872 188.762034 
L 308.434502 187.95661 
L 308.885788 187.151186 
L 308.932763 186.345763 
L 309.180155 185.540339 
L 309.209029 184.734915 
L 309.603419 183.124068 
L 310.101622 182.318644 
L 310.274978 181.51322 
L 310.691224 180.707797 
L 311.249103 179.902373 
L 311.626184 177.486102 
L 311.627229 176.680678 
L 312.079442 174.264407 
L 312.747867 172.653559 
L 312.85651 170.237288 
L 312.940583 168.626441 
L 314.315245 162.183051 
L 314.354342 160.572203 
L 314.523972 159.76678 
L 314.631813 158.155932 
L 315.311036 157.350508 
L 315.520371 154.934237 
L 315.773917 154.128814 
L 315.951768 152.517966 
L 316.565818 150.907119 
L 316.827585 149.296271 
L 317.592911 147.685424 
L 317.637056 146.88 
L 317.794325 146.074576 
L 318.131052 145.269153 
L 318.16306 144.463729 
L 318.908 141.242034 
L 318.942883 140.43661 
L 319.136802 139.631186 
L 319.19315 138.825763 
L 319.702753 138.020339 
L 319.862394 136.409492 
L 319.87432 135.604068 
L 320.038373 134.798644 
L 320.768865 133.99322 
L 320.843768 132.382373 
L 321.840738 131.576949 
L 322.360552 126.744407 
L 323.633395 125.938983 
L 323.801394 125.133559 
L 324.542384 124.328136 
L 325.03615 123.522712 
L 325.687187 122.717288 
L 326.882711 121.911864 
L 327.345917 121.106441 
L 328.201271 120.301017 
L 329.392029 119.495593 
L 329.529634 117.884746 
L 329.741495 117.079322 
L 330.232422 116.273898 
L 330.486456 115.468475 
L 331.049174 114.663051 
L 331.074331 113.857627 
L 331.481113 113.052203 
L 332.184806 109.830508 
L 332.448667 109.025085 
L 333.265464 108.219661 
L 333.309411 106.608814 
L 333.566631 105.80339 
L 333.775813 104.192542 
L 334.187961 102.581695 
L 335.519379 101.776271 
L 335.54651 100.970847 
L 336.072219 100.165424 
L 337.033467 99.36 
L 337.681119 98.554576 
L 337.748921 97.749153 
L 338.200377 96.943729 
L 338.784966 96.138305 
L 339.087321 95.332881 
L 339.089435 94.527458 
L 340.042968 93.722034 
L 340.349371 92.111186 
L 340.795023 91.305763 
L 341.044967 90.500339 
L 342.152121 88.889492 
L 343.317743 88.084068 
L 343.637119 87.278644 
L 344.103552 86.47322 
L 344.375093 85.667797 
L 345.05743 84.056949 
L 346.215634 83.251525 
L 346.327921 82.446102 
L 347.293198 81.640678 
L 347.69887 80.835254 
L 349.047359 80.029831 
L 351.844837 79.224407 
L 352.064025 78.418983 
L 354.144334 77.613559 
L 354.76052 76.808136 
L 354.793802 76.002712 
L 356.562985 75.197288 
L 357.344777 74.391864 
L 357.3723 70.364746 
L 357.377668 59.088814 
L 357.508627 58.28339 
L 361.619695 57.477966 
L 362.097509 56.672542 
L 367.891587 55.867119 
L 367.9138 55.061695 
L 373.959949 54.256271 
L 380.246892 52.645424 
L 556.937226 51.84 
L 556.937226 51.84 
" clip-path="url(#p355f7d6d2c)" style="fill: none; stroke-dasharray: 1.5,2.475; stroke-dashoffset: 0; stroke: #1f77b4; stroke-width: 1.5"/>
   </g>
   <g id="line2d_48">
    <path d="M -1 315.971003 
L 11.054554 315.213559 
L 11.054554 312.797288 
L 17.77868 311.991864 
L 26.136412 311.186441 
L 37.082068 310.381017 
L 37.082068 309.575593 
L 40.743791 308.770169 
L 42.456866 307.964746 
L 42.456866 306.353898 
L 45.67868 305.548475 
L 50.074082 304.743051 
L 50.074082 300.715932 
L 52.758489 299.910508 
L 58.77732 299.105085 
L 59.880161 298.299661 
L 66.854554 297.494237 
L 66.854554 296.688814 
L 68.643791 295.88339 
L 78.662153 295.077966 
L 81.302522 294.272542 
L 81.302522 293.467119 
L 83.780301 291.856271 
L 87.232517 291.050847 
L 92.400012 289.44 
L 93.358419 288.634576 
L 100.300513 287.829153 
L 103.368755 287.023729 
L 107.903984 285.412881 
L 108.232567 284.607458 
L 109.520715 282.99661 
L 111.075008 282.191186 
L 112.276626 281.385763 
L 112.276626 280.580339 
L 115.132517 279.774915 
L 117.279757 278.969492 
L 117.540283 278.164068 
L 120.541762 277.358644 
L 120.541762 276.55322 
L 120.782068 275.747797 
L 122.882607 274.942373 
L 123.782113 274.136949 
L 124.003883 273.331525 
L 124.878943 272.526102 
L 124.878943 271.720678 
L 125.094768 270.915254 
L 126.780928 270.109831 
L 127.395462 267.693559 
L 127.395462 266.888136 
L 128.597079 265.277288 
L 130.897774 264.471864 
L 130.897774 263.666441 
L 131.452971 262.861017 
L 132.000615 260.444746 
L 133.425585 258.833898 
L 133.425585 258.028475 
L 133.600211 257.223051 
L 134.119588 256.417627 
L 135.472697 255.612203 
L 135.968611 254.80678 
L 136.295858 254.001356 
L 136.458489 253.195932 
L 136.781794 252.390508 
L 136.781794 251.585085 
L 137.102522 250.779661 
L 137.261933 249.974237 
L 137.261933 248.36339 
L 138.049653 247.557966 
L 140.324337 246.752542 
L 140.471507 245.947119 
L 140.909819 245.141695 
L 140.909819 244.336271 
L 141.054868 243.530847 
L 142.337316 242.725424 
L 142.47732 241.92 
L 143.032517 241.114576 
L 143.307271 240.309153 
L 143.443947 239.503729 
L 145.179757 238.698305 
L 145.569917 237.892881 
L 145.827938 236.282034 
L 145.827938 235.47661 
L 146.211895 234.671186 
L 146.843795 233.865763 
L 147.093803 232.254915 
L 147.342268 231.449492 
L 148.562095 230.644068 
L 148.801686 229.838644 
L 149.394497 229.03322 
L 150.440042 228.227797 
L 150.896151 226.616949 
L 151.459114 225.811525 
L 151.459114 225.006102 
L 151.79315 222.589831 
L 152.234264 221.784407 
L 152.670595 218.562712 
L 152.994768 217.757288 
L 153.951909 216.951864 
L 154.473981 215.341017 
L 154.577587 214.535593 
L 155.498239 213.730169 
L 155.599246 212.119322 
L 155.800502 211.313898 
L 157.471732 210.508475 
L 157.950349 209.703051 
L 158.610993 208.897627 
L 158.610993 208.092203 
L 159.07633 207.28678 
L 159.444764 204.870508 
L 160.171668 204.065085 
L 160.440908 201.648814 
L 161.325585 200.84339 
L 161.500211 200.037966 
L 161.58724 198.427119 
L 162.191235 197.621695 
L 162.954716 196.816271 
L 163.372697 196.010847 
L 163.621417 194.4 
L 164.358489 191.983729 
L 164.439559 191.178305 
L 164.681794 190.372881 
L 165.082307 189.567458 
L 165.241402 188.762034 
L 165.636412 187.95661 
L 166.105364 185.540339 
L 166.182994 183.124068 
L 166.492025 182.318644 
L 166.722252 180.707797 
L 166.951169 179.096949 
L 167.329829 178.291525 
L 167.405135 177.486102 
L 168.371507 174.264407 
L 168.737098 173.458983 
L 168.809819 171.848136 
L 169.099397 171.042712 
L 169.74343 170.237288 
L 169.885159 169.431864 
L 169.885159 168.626441 
L 170.516839 167.821017 
L 170.586417 167.015593 
L 171.001382 166.210169 
L 171.070129 164.599322 
L 171.070129 163.793898 
L 171.275667 162.988475 
L 171.615916 162.183051 
L 171.683622 160.572203 
L 172.154401 159.76678 
L 172.619738 154.934237 
L 173.145047 154.128814 
L 173.145047 153.32339 
L 173.405152 152.517966 
L 173.663588 150.101695 
L 174.048156 149.296271 
L 174.429085 147.685424 
L 174.492224 146.88 
L 174.806443 146.074576 
L 174.868993 145.269153 
L 175.118227 144.463729 
L 175.118227 143.658305 
L 175.427615 142.852881 
L 175.489209 142.047458 
L 175.856802 141.242034 
L 176.039347 140.43661 
L 176.039347 139.631186 
L 176.341762 138.825763 
L 176.462095 138.020339 
L 176.999183 137.214915 
L 177.058419 135.604068 
L 177.294497 133.99322 
L 177.820664 132.382373 
L 178.110034 130.771525 
L 178.511689 129.966102 
L 178.511689 129.160678 
L 178.682607 127.549831 
L 178.682607 126.744407 
L 178.796151 125.938983 
L 178.796151 125.133559 
L 179.30317 121.911864 
L 179.859135 121.106441 
L 180.079388 120.301017 
L 180.079388 119.495593 
L 180.461955 117.884746 
L 181.002248 117.079322 
L 181.21635 116.273898 
L 181.641169 115.468475 
L 181.693957 114.663051 
L 182.113791 113.857627 
L 182.165964 113.052203 
L 182.632499 112.24678 
L 182.786817 111.441356 
L 183.950666 109.025085 
L 184.000513 108.219661 
L 184.248824 107.414237 
L 184.887356 106.608814 
L 185.563862 104.997966 
L 185.659585 103.387119 
L 185.75508 102.581695 
L 186.276291 100.970847 
L 186.65116 100.165424 
L 187.022569 98.554576 
L 187.93637 97.749153 
L 188.026619 96.943729 
L 190.389867 96.138305 
L 190.559525 95.332881 
L 190.854716 94.527458 
L 191.809663 93.722034 
L 192.380033 92.111186 
L 192.420466 90.500339 
L 192.862571 88.889492 
L 193.339392 88.084068 
L 193.497085 87.278644 
L 193.849653 86.47322 
L 193.927583 85.667797 
L 194.851169 84.862373 
L 195.2675 83.251525 
L 195.604959 81.640678 
L 196.013604 80.029831 
L 196.564245 79.224407 
L 196.600688 78.418983 
L 196.927197 77.613559 
L 197.358464 75.197288 
L 198.555876 71.975593 
L 199.583622 69.559322 
L 200.552772 67.143051 
L 200.618757 66.337627 
L 200.979757 65.532203 
L 203.787284 64.72678 
L 203.878591 63.921356 
L 205.047111 63.115932 
L 205.429199 61.505085 
L 205.749695 59.894237 
L 206.440226 59.088814 
L 207.119109 57.477966 
L 209.461856 55.867119 
L 209.541169 55.061695 
L 211.850666 54.256271 
L 213.07868 53.450847 
L 229.672352 52.645424 
L 235.672936 51.84 
L 235.672936 51.84 
" clip-path="url(#p355f7d6d2c)" style="fill: none; stroke-dasharray: 5.55,2.4; stroke-dashoffset: 0; stroke: #ff7f0e; stroke-width: 1.5"/>
   </g>
   <g id="line2d_49">
    <path d="M -1 227.426447 
L 140.471507 227.422373 
L 159.030037 226.616949 
L 171.818693 225.811525 
L 201.61186 225.006102 
L 202.58105 224.200678 
L 202.706443 222.589831 
L 203.002695 221.784407 
L 203.588738 217.757288 
L 204.362095 216.951864 
L 204.49704 216.146441 
L 204.780448 215.341017 
L 205.633446 214.535593 
L 207.607009 213.730169 
L 208.225741 212.924746 
L 210.000737 211.313898 
L 210.026841 210.508475 
L 211.738285 209.703051 
L 212.000021 208.897627 
L 212.099284 208.092203 
L 214.783692 205.675932 
L 214.887894 204.870508 
L 215.825074 204.065085 
L 215.915349 203.259661 
L 217.158385 202.454237 
L 217.926953 200.84339 
L 218.215417 200.037966 
L 218.353573 199.232542 
L 219.349032 197.621695 
L 222.089491 196.816271 
L 223.054381 196.010847 
L 225.240587 195.205424 
L 226.107379 194.4 
L 228.303907 193.594576 
L 238.154525 191.983729 
L 239.103315 191.178305 
L 239.324458 190.372881 
L 240.092122 189.567458 
L 240.184746 187.151186 
L 240.498082 184.734915 
L 240.79685 183.929492 
L 240.881806 183.124068 
L 241.195799 182.318644 
L 241.201813 181.51322 
L 241.721653 180.707797 
L 242.660499 179.902373 
L 244.068166 179.096949 
L 244.157675 178.291525 
L 244.806232 177.486102 
L 245.118449 176.680678 
L 255.192908 175.069831 
L 257.359562 174.264407 
L 258.50253 173.458983 
L 259.200747 172.653559 
L 260.353134 171.042712 
L 264.588041 170.237288 
L 266.895462 169.431864 
L 267.463189 168.626441 
L 269.858425 167.821017 
L 270.49665 167.015593 
L 272.158136 166.210169 
L 273.26866 165.404746 
L 274.060635 164.599322 
L 276.246559 163.793898 
L 276.883557 162.988475 
L 279.669688 162.183051 
L 280.111281 161.377627 
L 280.879331 160.572203 
L 281.022701 159.76678 
L 281.022701 158.961356 
L 282.203793 158.155932 
L 282.205965 157.350508 
L 284.92202 156.545085 
L 286.468993 155.739661 
L 286.679386 154.934237 
L 287.862598 154.128814 
L 290.118825 153.32339 
L 290.145574 152.517966 
L 291.545315 151.712542 
L 292.602248 150.907119 
L 292.92464 150.101695 
L 294.004767 149.296271 
L 294.62995 147.685424 
L 295.364755 146.88 
L 296.607479 146.074576 
L 298.460499 145.269153 
L 299.230275 144.463729 
L 300.284645 143.658305 
L 300.287417 142.852881 
L 300.694116 142.047458 
L 301.364747 141.242034 
L 302.807673 140.43661 
L 303.326232 139.631186 
L 304.240869 138.825763 
L 304.26096 138.020339 
L 304.452577 137.214915 
L 304.90852 136.409492 
L 306.99086 135.604068 
L 307.78419 134.798644 
L 307.962072 133.99322 
L 308.2587 133.187797 
L 309.684688 132.382373 
L 311.016266 130.771525 
L 312.010121 129.966102 
L 312.428367 129.160678 
L 312.645047 128.355254 
L 312.7438 126.744407 
L 313.284161 125.133559 
L 313.654663 124.328136 
L 313.902419 123.522712 
L 314.573557 122.717288 
L 314.818634 121.911864 
L 315.401564 121.106441 
L 315.716347 120.301017 
L 315.831404 118.690169 
L 316.401809 117.884746 
L 317.172463 117.079322 
L 317.587502 116.273898 
L 317.745862 114.663051 
L 318.140835 113.052203 
L 318.718233 112.24678 
L 318.926318 111.441356 
L 318.943755 110.635932 
L 319.158484 109.830508 
L 319.194017 109.025085 
L 319.436705 108.219661 
L 319.537324 107.414237 
L 319.927094 106.608814 
L 320.502248 105.80339 
L 321.608081 104.997966 
L 322.008294 104.192542 
L 322.193654 103.387119 
L 322.23223 102.581695 
L 323.025246 101.776271 
L 323.586819 100.970847 
L 323.870866 98.554576 
L 324.113077 97.749153 
L 324.98592 96.943729 
L 325.143148 96.138305 
L 325.638501 95.332881 
L 325.967822 93.722034 
L 326.621371 92.111186 
L 326.803914 89.694915 
L 327.170086 87.278644 
L 327.192107 86.47322 
L 327.94141 84.862373 
L 328.125709 84.056949 
L 328.907017 82.446102 
L 328.980448 81.640678 
L 329.656751 80.835254 
L 329.752159 80.029831 
L 330.224519 79.224407 
L 330.834372 78.418983 
L 330.933504 77.613559 
L 332.096885 75.197288 
L 332.154055 74.391864 
L 334.298824 71.975593 
L 334.394541 71.170169 
L 335.133536 70.364746 
L 335.53439 69.559322 
L 335.77954 68.753898 
L 336.56134 67.948475 
L 337.140657 66.337627 
L 337.4005 64.72678 
L 339.122712 63.921356 
L 339.730574 62.310508 
L 339.918404 60.699661 
L 342.902189 59.088814 
L 343.44077 58.28339 
L 343.584696 57.477966 
L 345.037834 56.672542 
L 345.066997 55.867119 
L 345.411249 55.061695 
L 345.425247 54.256271 
L 351.851765 53.450847 
L 355.553542 52.645424 
L 357.214294 51.84 
L 357.214294 51.84 
" clip-path="url(#p355f7d6d2c)" style="fill: none; stroke-dasharray: 9.6,2.4,1.5,2.4; stroke-dashoffset: 0; stroke: #2ca02c; stroke-width: 1.5"/>
   </g>
   <g id="line2d_50">
    <path d="M 179.498633 383.674576 
L 181.40276 382.869153 
L 183.950666 382.063729 
L 184.936056 381.258305 
L 185.251183 380.452881 
L 185.443888 379.647458 
L 185.850349 378.842034 
L 186.063883 378.03661 
L 188.161615 376.425763 
L 189.421986 375.620339 
L 189.876562 374.814915 
L 191.871162 374.009492 
L 193.319637 373.204068 
L 193.359137 372.398644 
L 194.31499 371.59322 
L 194.334262 370.787797 
L 197.071467 369.982373 
L 197.83818 369.176949 
L 203.969691 367.566102 
L 213.702742 365.955254 
L 213.786017 365.149831 
L 214.504492 364.344407 
L 215.175939 362.733559 
L 216.49725 361.928136 
L 216.917228 361.122712 
L 217.5066 360.317288 
L 217.701155 358.706441 
L 219.1519 357.901017 
L 221.739901 357.095593 
L 222.195708 356.290169 
L 222.397709 354.679322 
L 222.675008 353.873898 
L 222.969334 351.457627 
L 223.176912 350.652203 
L 224.134765 349.84678 
L 224.363856 349.041356 
L 224.962465 348.235932 
L 225.799948 347.430508 
L 225.844011 346.625085 
L 226.629 345.819661 
L 226.998713 345.014237 
L 228.345314 344.208814 
L 229.15651 343.40339 
L 229.269917 342.597966 
L 230.126272 341.792542 
L 230.189573 340.181695 
L 230.528118 339.376271 
L 231.057746 338.570847 
L 232.352108 337.765424 
L 233.057701 336.96 
L 235.089172 335.349153 
L 235.734983 333.738305 
L 236.802248 332.127458 
L 236.815662 331.322034 
L 237.756866 330.51661 
L 238.024577 329.711186 
L 246.38597 328.905763 
L 246.586382 328.100339 
L 253.225434 327.294915 
L 254.69278 326.489492 
L 256.410515 325.684068 
L 256.628367 324.878644 
L 256.632466 324.07322 
L 257.173961 323.267797 
L 257.242653 321.656949 
L 257.584363 320.851525 
L 257.712259 320.046102 
L 258.310344 319.240678 
L 258.53773 318.435254 
L 258.740507 316.824407 
L 259.050491 316.018983 
L 262.315039 315.213559 
L 263.108 314.408136 
L 264.429631 313.602712 
L 265.076183 312.797288 
L 265.479591 311.991864 
L 266.42259 311.186441 
L 268.257075 310.381017 
L 268.32764 309.575593 
L 269.817091 308.770169 
L 270.257769 307.964746 
L 271.435403 307.159322 
L 271.667416 306.353898 
L 272.046498 305.548475 
L 273.831359 304.743051 
L 274.230416 303.937627 
L 274.25688 303.132203 
L 274.499532 302.32678 
L 277.874985 300.715932 
L 278.75041 299.910508 
L 279.237226 299.105085 
L 280.186694 298.299661 
L 280.284748 297.494237 
L 280.554868 296.688814 
L 280.66557 295.88339 
L 281.569076 295.077966 
L 281.633 294.272542 
L 283.251899 293.467119 
L 283.993974 292.661695 
L 284.427808 291.856271 
L 285.592302 291.050847 
L 285.68203 290.245424 
L 285.894585 289.44 
L 286.531447 287.829153 
L 286.805483 286.218305 
L 287.804067 285.412881 
L 290.925907 284.607458 
L 292.177376 282.99661 
L 292.180765 282.191186 
L 292.393744 281.385763 
L 292.459438 280.580339 
L 293.175086 279.774915 
L 293.899348 278.164068 
L 293.954525 277.358644 
L 294.911234 276.55322 
L 295.344393 275.747797 
L 295.380411 274.942373 
L 296.372982 274.136949 
L 296.680291 273.331525 
L 296.837599 272.526102 
L 297.506808 271.720678 
L 297.527589 270.915254 
L 297.693452 270.109831 
L 298.36178 269.304407 
L 299.282874 268.498983 
L 299.578699 266.888136 
L 299.637886 265.277288 
L 300.095744 264.471864 
L 300.2486 263.666441 
L 301.002933 262.861017 
L 301.302643 262.055593 
L 301.50077 258.833898 
L 301.746061 258.028475 
L 302.410049 257.223051 
L 303.149819 255.612203 
L 303.440424 252.390508 
L 304.151594 251.585085 
L 305.245589 250.779661 
L 305.979998 249.168814 
L 306.279604 244.336271 
L 306.733136 242.725424 
L 307.203792 241.92 
L 308.165384 241.114576 
L 308.472963 239.503729 
L 308.870117 238.698305 
L 309.200147 237.087458 
L 309.38737 234.671186 
L 309.702238 233.865763 
L 309.761413 233.060339 
L 310.338716 232.254915 
L 310.80342 230.644068 
L 311.211095 229.838644 
L 311.398678 229.03322 
L 311.911625 228.227797 
L 312.611395 227.422373 
L 312.968906 226.616949 
L 313.152517 225.006102 
L 313.470337 224.200678 
L 314.069041 223.395254 
L 314.550231 221.784407 
L 314.703546 220.173559 
L 315.290043 219.368136 
L 315.541245 216.951864 
L 315.686113 216.146441 
L 315.982741 215.341017 
L 316.432438 214.535593 
L 317.023714 213.730169 
L 317.232537 212.924746 
L 317.285255 211.313898 
L 317.555033 209.703051 
L 318.113259 208.092203 
L 318.115039 207.28678 
L 318.31829 206.481356 
L 318.69719 205.675932 
L 319.521001 204.870508 
L 319.956005 204.065085 
L 320.200916 203.259661 
L 320.281941 202.454237 
L 320.896118 201.648814 
L 321.004753 200.037966 
L 321.319053 199.232542 
L 321.900717 198.427119 
L 322.044628 197.621695 
L 322.362153 196.816271 
L 323.060673 196.010847 
L 323.437415 195.205424 
L 326.588224 194.4 
L 326.653772 193.594576 
L 326.927771 192.789153 
L 327.626503 191.983729 
L 327.73595 191.178305 
L 328.013143 190.372881 
L 328.041662 189.567458 
L 329.672779 185.540339 
L 329.734162 184.734915 
L 330.62168 183.929492 
L 331.063367 181.51322 
L 331.610496 179.902373 
L 331.686784 179.096949 
L 331.91352 178.291525 
L 332.291309 177.486102 
L 332.427472 176.680678 
L 334.506614 171.848136 
L 334.620738 170.237288 
L 334.633727 169.431864 
L 334.769264 168.626441 
L 335.390982 167.015593 
L 336.67877 166.210169 
L 336.8674 163.793898 
L 337.327692 162.988475 
L 337.475926 162.183051 
L 337.750013 161.377627 
L 338.778576 159.76678 
L 338.971952 158.155932 
L 339.02068 157.350508 
L 339.79657 156.545085 
L 340.258105 155.739661 
L 340.606669 154.128814 
L 341.120905 153.32339 
L 341.276356 152.517966 
L 341.311375 150.907119 
L 341.417246 150.101695 
L 341.723798 149.296271 
L 341.795502 148.490847 
L 342.352893 147.685424 
L 342.812202 146.074576 
L 343.42559 145.269153 
L 343.615402 144.463729 
L 343.688532 143.658305 
L 344.100753 142.852881 
L 344.539266 141.242034 
L 344.63837 140.43661 
L 345.179804 138.825763 
L 345.823275 133.187797 
L 345.834896 131.576949 
L 347.224179 129.160678 
L 347.813482 124.328136 
L 348.211863 122.717288 
L 348.285938 121.911864 
L 348.648868 121.106441 
L 348.845496 120.301017 
L 349.275302 119.495593 
L 349.989797 118.690169 
L 350.247738 117.884746 
L 350.631577 117.079322 
L 350.690245 116.273898 
L 351.227733 115.468475 
L 351.513607 114.663051 
L 351.56519 113.857627 
L 352.073977 113.052203 
L 352.183289 111.441356 
L 352.391914 110.635932 
L 352.562047 109.025085 
L 352.669289 108.219661 
L 353.137564 107.414237 
L 353.342426 104.997966 
L 353.813611 104.192542 
L 353.943523 103.387119 
L 354.232214 102.581695 
L 354.553052 100.970847 
L 355.091397 100.165424 
L 355.287989 99.36 
L 355.404076 96.943729 
L 355.690912 96.138305 
L 355.930883 94.527458 
L 355.967034 93.722034 
L 356.701736 92.91661 
L 356.970693 90.500339 
L 357.363575 89.694915 
L 357.413883 81.640678 
L 357.666484 80.835254 
L 357.773593 80.029831 
L 358.301628 79.224407 
L 358.353725 78.418983 
L 358.605069 77.613559 
L 358.621011 76.808136 
L 358.856148 75.197288 
L 358.885241 74.391864 
L 359.570585 73.586441 
L 360.133393 71.170169 
L 361.198123 70.364746 
L 361.760747 69.559322 
L 361.803147 68.753898 
L 362.491794 67.948475 
L 362.950957 67.143051 
L 363.125255 65.532203 
L 365.794527 64.72678 
L 365.977015 63.921356 
L 367.448916 63.115932 
L 367.667742 61.505085 
L 368.017984 60.699661 
L 368.646623 59.894237 
L 369.038235 59.088814 
L 370.247532 58.28339 
L 370.430843 57.477966 
L 375.061529 55.867119 
L 376.465854 55.061695 
L 378.212966 54.256271 
L 382.501066 53.450847 
L 390.601167 52.645424 
L 556.942436 51.84 
L 556.942436 51.84 
" clip-path="url(#p355f7d6d2c)" style="fill: none; stroke: #d62728; stroke-width: 1.5; stroke-linecap: square"/>
   </g>
   <g id="patch_3">
    <path d="M 72 384.48 
L 72 51.84 
" style="fill: none; stroke: #000000; stroke-width: 0.8; stroke-linejoin: miter; stroke-linecap: square"/>
   </g>
   <g id="patch_4">
    <path d="M 518.4 384.48 
L 518.4 51.84 
" style="fill: none; stroke: #000000; stroke-width: 0.8; stroke-linejoin: miter; stroke-linecap: square"/>
   </g>
   <g id="patch_5">
    <path d="M 72 384.48 
L 518.4 384.48 
" style="fill: none; stroke: #000000; stroke-width: 0.8; stroke-linejoin: miter; stroke-linecap: square"/>
   </g>
   <g id="patch_6">
    <path d="M 72 51.84 
L 518.4 51.84 
" style="fill: none; stroke: #000000; stroke-width: 0.8; stroke-linejoin: miter; stroke-linecap: square"/>
   </g>
   <g id="legend_1">
    <g id="patch_7">
     <path d="M 350.351562 379.48 
L 511.4 379.48 
Q 513.4 379.48 513.4 377.48 
L 513.4 319.7675 
Q 513.4 317.7675 511.4 317.7675 
L 350.351562 317.7675 
Q 348.351562 317.7675 348.351562 319.7675 
L 348.351562 377.48 
Q 348.351562 379.48 350.351562 379.48 
z
" style="fill: #ffffff; opacity: 0.8; stroke: #cccccc; stroke-linejoin: miter"/>
    </g>
    <g id="line2d_51">
     <path d="M 352.351562 325.865937 
L 362.351562 325.865937 
L 372.351562 325.865937 
" style="fill: none; stroke-dasharray: 1.5,2.475; stroke-dashoffset: 0; stroke: #1f77b4; stroke-width: 1.5"/>
    </g>
    <g id="text_26">
     <!-- Gadget Detection Phase -->
     <g transform="translate(380.351562 329.365937) scale(0.1 -0.1)">
      <defs>
       <path id="DejaVuSans-47" d="M 3809 666 
L 3809 1919 
L 2778 1919 
L 2778 2438 
L 4434 2438 
L 4434 434 
Q 4069 175 3628 42 
Q 3188 -91 2688 -91 
Q 1594 -91 976 548 
Q 359 1188 359 2328 
Q 359 3472 976 4111 
Q 1594 4750 2688 4750 
Q 3144 4750 3555 4637 
Q 3966 4525 4313 4306 
L 4313 3634 
Q 3963 3931 3569 4081 
Q 3175 4231 2741 4231 
Q 1884 4231 1454 3753 
Q 1025 3275 1025 2328 
Q 1025 1384 1454 906 
Q 1884 428 2741 428 
Q 3075 428 3337 486 
Q 3600 544 3809 666 
z
" transform="scale(0.015625)"/>
       <path id="DejaVuSans-44" d="M 1259 4147 
L 1259 519 
L 2022 519 
Q 2988 519 3436 956 
Q 3884 1394 3884 2338 
Q 3884 3275 3436 3711 
Q 2988 4147 2022 4147 
L 1259 4147 
z
M 628 4666 
L 1925 4666 
Q 3281 4666 3915 4102 
Q 4550 3538 4550 2338 
Q 4550 1131 3912 565 
Q 3275 0 1925 0 
L 628 0 
L 628 4666 
z
" transform="scale(0.015625)"/>
       <path id="DejaVuSans-68" d="M 3513 2113 
L 3513 0 
L 2938 0 
L 2938 2094 
Q 2938 2591 2744 2837 
Q 2550 3084 2163 3084 
Q 1697 3084 1428 2787 
Q 1159 2491 1159 1978 
L 1159 0 
L 581 0 
L 581 4863 
L 1159 4863 
L 1159 2956 
Q 1366 3272 1645 3428 
Q 1925 3584 2291 3584 
Q 2894 3584 3203 3211 
Q 3513 2838 3513 2113 
z
" transform="scale(0.015625)"/>
      </defs>
      <use xlink:href="#DejaVuSans-47"/>
      <use xlink:href="#DejaVuSans-61" x="77.490234"/>
      <use xlink:href="#DejaVuSans-64" x="138.769531"/>
      <use xlink:href="#DejaVuSans-67" x="202.246094"/>
      <use xlink:href="#DejaVuSans-65" x="265.722656"/>
      <use xlink:href="#DejaVuSans-74" x="327.246094"/>
      <use xlink:href="#DejaVuSans-20" x="366.455078"/>
      <use xlink:href="#DejaVuSans-44" x="398.242188"/>
      <use xlink:href="#DejaVuSans-65" x="475.244141"/>
      <use xlink:href="#DejaVuSans-74" x="536.767578"/>
      <use xlink:href="#DejaVuSans-65" x="575.976562"/>
      <use xlink:href="#DejaVuSans-63" x="637.5"/>
      <use xlink:href="#DejaVuSans-74" x="692.480469"/>
      <use xlink:href="#DejaVuSans-69" x="731.689453"/>
      <use xlink:href="#DejaVuSans-6f" x="759.472656"/>
      <use xlink:href="#DejaVuSans-6e" x="820.654297"/>
      <use xlink:href="#DejaVuSans-20" x="884.033203"/>
      <use xlink:href="#DejaVuSans-50" x="915.820312"/>
      <use xlink:href="#DejaVuSans-68" x="976.123047"/>
      <use xlink:href="#DejaVuSans-61" x="1039.501953"/>
      <use xlink:href="#DejaVuSans-73" x="1100.78125"/>
      <use xlink:href="#DejaVuSans-65" x="1152.880859"/>
     </g>
    </g>
    <g id="line2d_52">
     <path d="M 352.351562 340.544062 
L 362.351562 340.544062 
L 372.351562 340.544062 
" style="fill: none; stroke-dasharray: 5.55,2.4; stroke-dashoffset: 0; stroke: #ff7f0e; stroke-width: 1.5"/>
    </g>
    <g id="text_27">
     <!-- Exploit Generation Phase -->
     <g transform="translate(380.351562 344.044062) scale(0.1 -0.1)">
      <defs>
       <path id="DejaVuSans-45" d="M 628 4666 
L 3578 4666 
L 3578 4134 
L 1259 4134 
L 1259 2753 
L 3481 2753 
L 3481 2222 
L 1259 2222 
L 1259 531 
L 3634 531 
L 3634 0 
L 628 0 
L 628 4666 
z
" transform="scale(0.015625)"/>
       <path id="DejaVuSans-78" d="M 3513 3500 
L 2247 1797 
L 3578 0 
L 2900 0 
L 1881 1375 
L 863 0 
L 184 0 
L 1544 1831 
L 300 3500 
L 978 3500 
L 1906 2253 
L 2834 3500 
L 3513 3500 
z
" transform="scale(0.015625)"/>
       <path id="DejaVuSans-70" d="M 1159 525 
L 1159 -1331 
L 581 -1331 
L 581 3500 
L 1159 3500 
L 1159 2969 
Q 1341 3281 1617 3432 
Q 1894 3584 2278 3584 
Q 2916 3584 3314 3078 
Q 3713 2572 3713 1747 
Q 3713 922 3314 415 
Q 2916 -91 2278 -91 
Q 1894 -91 1617 61 
Q 1341 213 1159 525 
z
M 3116 1747 
Q 3116 2381 2855 2742 
Q 2594 3103 2138 3103 
Q 1681 3103 1420 2742 
Q 1159 2381 1159 1747 
Q 1159 1113 1420 752 
Q 1681 391 2138 391 
Q 2594 391 2855 752 
Q 3116 1113 3116 1747 
z
" transform="scale(0.015625)"/>
      </defs>
      <use xlink:href="#DejaVuSans-45"/>
      <use xlink:href="#DejaVuSans-78" x="63.183594"/>
      <use xlink:href="#DejaVuSans-70" x="122.363281"/>
      <use xlink:href="#DejaVuSans-6c" x="185.839844"/>
      <use xlink:href="#DejaVuSans-6f" x="213.623047"/>
      <use xlink:href="#DejaVuSans-69" x="274.804688"/>
      <use xlink:href="#DejaVuSans-74" x="302.587891"/>
      <use xlink:href="#DejaVuSans-20" x="341.796875"/>
      <use xlink:href="#DejaVuSans-47" x="373.583984"/>
      <use xlink:href="#DejaVuSans-65" x="451.074219"/>
      <use xlink:href="#DejaVuSans-6e" x="512.597656"/>
      <use xlink:href="#DejaVuSans-65" x="575.976562"/>
      <use xlink:href="#DejaVuSans-72" x="637.5"/>
      <use xlink:href="#DejaVuSans-61" x="678.613281"/>
      <use xlink:href="#DejaVuSans-74" x="739.892578"/>
      <use xlink:href="#DejaVuSans-69" x="779.101562"/>
      <use xlink:href="#DejaVuSans-6f" x="806.884766"/>
      <use xlink:href="#DejaVuSans-6e" x="868.066406"/>
      <use xlink:href="#DejaVuSans-20" x="931.445312"/>
      <use xlink:href="#DejaVuSans-50" x="963.232422"/>
      <use xlink:href="#DejaVuSans-68" x="1023.535156"/>
      <use xlink:href="#DejaVuSans-61" x="1086.914062"/>
      <use xlink:href="#DejaVuSans-73" x="1148.193359"/>
      <use xlink:href="#DejaVuSans-65" x="1200.292969"/>
     </g>
    </g>
    <g id="line2d_53">
     <path d="M 352.351562 355.222188 
L 362.351562 355.222188 
L 372.351562 355.222188 
" style="fill: none; stroke-dasharray: 9.6,2.4,1.5,2.4; stroke-dashoffset: 0; stroke: #2ca02c; stroke-width: 1.5"/>
    </g>
    <g id="text_28">
     <!-- Gadget Verification Phase -->
     <g transform="translate(380.351562 358.722188) scale(0.1 -0.1)">
      <defs>
       <path id="DejaVuSans-56" d="M 1831 0 
L 50 4666 
L 709 4666 
L 2188 738 
L 3669 4666 
L 4325 4666 
L 2547 0 
L 1831 0 
z
" transform="scale(0.015625)"/>
      </defs>
      <use xlink:href="#DejaVuSans-47"/>
      <use xlink:href="#DejaVuSans-61" x="77.490234"/>
      <use xlink:href="#DejaVuSans-64" x="138.769531"/>
      <use xlink:href="#DejaVuSans-67" x="202.246094"/>
      <use xlink:href="#DejaVuSans-65" x="265.722656"/>
      <use xlink:href="#DejaVuSans-74" x="327.246094"/>
      <use xlink:href="#DejaVuSans-20" x="366.455078"/>
      <use xlink:href="#DejaVuSans-56" x="398.242188"/>
      <use xlink:href="#DejaVuSans-65" x="458.900391"/>
      <use xlink:href="#DejaVuSans-72" x="520.423828"/>
      <use xlink:href="#DejaVuSans-69" x="561.537109"/>
      <use xlink:href="#DejaVuSans-66" x="589.320312"/>
      <use xlink:href="#DejaVuSans-69" x="624.525391"/>
      <use xlink:href="#DejaVuSans-63" x="652.308594"/>
      <use xlink:href="#DejaVuSans-61" x="707.289062"/>
      <use xlink:href="#DejaVuSans-74" x="768.568359"/>
      <use xlink:href="#DejaVuSans-69" x="807.777344"/>
      <use xlink:href="#DejaVuSans-6f" x="835.560547"/>
      <use xlink:href="#DejaVuSans-6e" x="896.742188"/>
      <use xlink:href="#DejaVuSans-20" x="960.121094"/>
      <use xlink:href="#DejaVuSans-50" x="991.908203"/>
      <use xlink:href="#DejaVuSans-68" x="1052.210938"/>
      <use xlink:href="#DejaVuSans-61" x="1115.589844"/>
      <use xlink:href="#DejaVuSans-73" x="1176.869141"/>
      <use xlink:href="#DejaVuSans-65" x="1228.96875"/>
     </g>
    </g>
    <g id="line2d_54">
     <path d="M 352.351562 369.900312 
L 362.351562 369.900312 
L 372.351562 369.900312 
" style="fill: none; stroke: #d62728; stroke-width: 1.5; stroke-linecap: square"/>
    </g>
    <g id="text_29">
     <!-- All Phases -->
     <g transform="translate(380.351562 373.400312) scale(0.1 -0.1)">
      <use xlink:href="#DejaVuSans-41"/>
      <use xlink:href="#DejaVuSans-6c" x="68.408203"/>
      <use xlink:href="#DejaVuSans-6c" x="96.191406"/>
      <use xlink:href="#DejaVuSans-20" x="123.974609"/>
      <use xlink:href="#DejaVuSans-50" x="155.761719"/>
      <use xlink:href="#DejaVuSans-68" x="216.064453"/>
      <use xlink:href="#DejaVuSans-61" x="279.443359"/>
      <use xlink:href="#DejaVuSans-73" x="340.722656"/>
      <use xlink:href="#DejaVuSans-65" x="392.822266"/>
      <use xlink:href="#DejaVuSans-73" x="454.345703"/>
     </g>
    </g>
   </g>
  </g>
 </g>
 <defs>
  <clipPath id="p355f7d6d2c">
   <rect x="72" y="51.84" width="446.4" height="332.64"/>
  </clipPath>
 </defs>
</svg>
